<svg width="726" height="327" viewBox="0 0 726 327" fill="none" xmlns="http://www.w3.org/2000/svg">
<rect width="726" height="327" fill="#140342"/>
<path d="M91.896 199.802V94.4012H110.99V183.796H157.411V199.802H91.896ZM195.907 201.398C190.898 201.398 186.386 200.506 182.372 198.721C178.392 196.903 175.235 194.227 172.902 190.693C170.604 187.159 169.454 182.801 169.454 177.621C169.454 173.16 170.278 169.472 171.925 166.556C173.571 163.639 175.819 161.306 178.667 159.556C181.514 157.806 184.722 156.486 188.291 155.593C191.893 154.667 195.616 153.998 199.459 153.586C204.09 153.106 207.847 152.677 210.729 152.3C213.611 151.888 215.704 151.27 217.008 150.447C218.346 149.589 219.015 148.268 219.015 146.484V146.175C219.015 142.298 217.866 139.296 215.567 137.169C213.268 135.042 209.957 133.978 205.634 133.978C201.071 133.978 197.451 134.973 194.775 136.963C192.133 138.953 190.349 141.303 189.423 144.014L172.027 141.543C173.4 136.74 175.664 132.726 178.821 129.501C181.977 126.241 185.837 123.805 190.401 122.192C194.964 120.546 200.007 119.722 205.531 119.722C209.34 119.722 213.131 120.168 216.905 121.06C220.679 121.952 224.128 123.428 227.25 125.486C230.372 127.511 232.877 130.273 234.764 133.772C236.685 137.272 237.646 141.646 237.646 146.896V199.802H219.736V188.943H219.118C217.986 191.139 216.391 193.197 214.332 195.119C212.308 197.006 209.752 198.533 206.664 199.699C203.61 200.831 200.025 201.398 195.907 201.398ZM200.745 187.708C204.485 187.708 207.727 186.97 210.472 185.495C213.217 183.985 215.327 181.995 216.802 179.525C218.312 177.054 219.067 174.361 219.067 171.445V162.13C218.484 162.61 217.489 163.056 216.082 163.468C214.709 163.879 213.165 164.24 211.45 164.548C209.734 164.857 208.036 165.132 206.355 165.372C204.674 165.612 203.215 165.818 201.98 165.989C199.201 166.367 196.714 166.984 194.518 167.842C192.322 168.7 190.589 169.901 189.32 171.445C188.05 172.954 187.416 174.91 187.416 177.312C187.416 180.743 188.668 183.333 191.173 185.083C193.677 186.833 196.868 187.708 200.745 187.708ZM256.379 199.802V120.751H274.186V134.184H275.113C276.759 129.655 279.487 126.121 283.296 123.582C287.104 121.009 291.65 119.722 296.934 119.722C302.286 119.722 306.798 121.026 310.469 123.633C314.175 126.207 316.782 129.724 318.292 134.184H319.115C320.865 129.792 323.816 126.293 327.967 123.685C332.153 121.043 337.111 119.722 342.841 119.722C350.115 119.722 356.05 122.021 360.648 126.618C365.245 131.216 367.544 137.924 367.544 146.741V199.802H348.862V149.623C348.862 144.717 347.559 141.132 344.951 138.867C342.343 136.568 339.153 135.419 335.378 135.419C330.884 135.419 327.367 136.826 324.828 139.639C322.323 142.418 321.071 146.038 321.071 150.498V199.802H302.801V148.851C302.801 144.769 301.566 141.509 299.095 139.073C296.659 136.637 293.468 135.419 289.523 135.419C286.847 135.419 284.411 136.105 282.215 137.478C280.019 138.816 278.269 140.72 276.965 143.19C275.661 145.626 275.01 148.474 275.01 151.734V199.802H256.379ZM387.268 199.802V94.4012H405.899V133.824H406.671C407.631 131.902 408.987 129.861 410.736 127.699C412.486 125.503 414.854 123.633 417.839 122.09C420.824 120.511 424.632 119.722 429.264 119.722C435.371 119.722 440.878 121.283 445.784 124.405C450.725 127.493 454.636 132.074 457.518 138.147C460.435 144.185 461.893 151.596 461.893 160.38C461.893 169.06 460.469 176.437 457.621 182.51C454.774 188.583 450.897 193.215 445.99 196.405C441.084 199.596 435.526 201.192 429.315 201.192C424.787 201.192 421.03 200.437 418.045 198.927C415.06 197.418 412.658 195.599 410.839 193.472C409.055 191.31 407.666 189.269 406.671 187.348H405.59V199.802H387.268ZM405.538 160.277C405.538 165.389 406.259 169.866 407.7 173.709C409.175 177.552 411.285 180.554 414.03 182.716C416.809 184.843 420.172 185.907 424.117 185.907C428.235 185.907 431.683 184.809 434.462 182.613C437.241 180.383 439.334 177.346 440.741 173.503C442.182 169.626 442.902 165.217 442.902 160.277C442.902 155.37 442.199 151.013 440.792 147.205C439.386 143.396 437.293 140.411 434.513 138.25C431.734 136.088 428.269 135.007 424.117 135.007C420.137 135.007 416.758 136.054 413.979 138.147C411.2 140.24 409.09 143.173 407.649 146.947C406.242 150.721 405.538 155.165 405.538 160.277ZM507.067 201.192C500.857 201.192 495.298 199.596 490.392 196.405C485.486 193.215 481.609 188.583 478.761 182.51C475.913 176.437 474.489 169.06 474.489 160.38C474.489 151.596 475.93 144.185 478.812 138.147C481.729 132.074 485.657 127.493 490.598 124.405C495.538 121.283 501.045 119.722 507.118 119.722C511.75 119.722 515.558 120.511 518.543 122.09C521.528 123.633 523.896 125.503 525.646 127.699C527.396 129.861 528.751 131.902 529.711 133.824H530.483V94.4012H549.165V199.802H530.844V187.348H529.711C528.751 189.269 527.361 191.31 525.543 193.472C523.724 195.599 521.323 197.418 518.338 198.927C515.353 200.437 511.596 201.192 507.067 201.192ZM512.265 185.907C516.21 185.907 519.573 184.843 522.352 182.716C525.131 180.554 527.241 177.552 528.682 173.709C530.123 169.866 530.844 165.389 530.844 160.277C530.844 155.165 530.123 150.721 528.682 146.947C527.275 143.173 525.183 140.24 522.403 138.147C519.659 136.054 516.279 135.007 512.265 135.007C508.113 135.007 504.648 136.088 501.869 138.25C499.09 140.411 496.997 143.396 495.59 147.205C494.183 151.013 493.48 155.37 493.48 160.277C493.48 165.217 494.183 169.626 495.59 173.503C497.031 177.346 499.141 180.383 501.92 182.613C504.734 184.809 508.182 185.907 512.265 185.907ZM591.766 201.398C586.756 201.398 582.245 200.506 578.23 198.721C574.25 196.903 571.094 194.227 568.761 190.693C566.462 187.159 565.313 182.801 565.313 177.621C565.313 173.16 566.136 169.472 567.783 166.556C569.43 163.639 571.677 161.306 574.525 159.556C577.373 157.806 580.581 156.486 584.149 155.593C587.751 154.667 591.474 153.998 595.317 153.586C599.949 153.106 603.706 152.677 606.588 152.3C609.47 151.888 611.563 151.27 612.867 150.447C614.205 149.589 614.874 148.268 614.874 146.484V146.175C614.874 142.298 613.724 139.296 611.425 137.169C609.127 135.042 605.816 133.978 601.493 133.978C596.929 133.978 593.31 134.973 590.634 136.963C587.992 138.953 586.207 141.303 585.281 144.014L567.886 141.543C569.258 136.74 571.523 132.726 574.679 129.501C577.836 126.241 581.696 123.805 586.259 122.192C590.822 120.546 595.866 119.722 601.39 119.722C605.198 119.722 608.989 120.168 612.764 121.06C616.538 121.952 619.986 123.428 623.108 125.486C626.23 127.511 628.735 130.273 630.622 133.772C632.543 137.272 633.504 141.646 633.504 146.896V199.802H615.594V188.943H614.977C613.844 191.139 612.249 193.197 610.19 195.119C608.166 197.006 605.61 198.533 602.522 199.699C599.468 200.831 595.883 201.398 591.766 201.398ZM596.603 187.708C600.343 187.708 603.586 186.97 606.33 185.495C609.075 183.985 611.185 181.995 612.661 179.525C614.17 177.054 614.925 174.361 614.925 171.445V162.13C614.342 162.61 613.347 163.056 611.94 163.468C610.568 163.879 609.024 164.24 607.308 164.548C605.593 164.857 603.894 165.132 602.213 165.372C600.532 165.612 599.074 165.818 597.839 165.989C595.06 166.367 592.572 166.984 590.376 167.842C588.18 168.7 586.448 169.901 585.178 171.445C583.909 172.954 583.274 174.91 583.274 177.312C583.274 180.743 584.526 183.333 587.031 185.083C589.536 186.833 592.726 187.708 596.603 187.708Z" fill="white"/>
<path d="M409.501 231.078C455.273 266.973 480.649 265.443 525.732 231.078" stroke="#7254ED" stroke-width="15.8101"/>
</svg>
