<svg width="563" height="207" viewBox="0 0 563 207" fill="none" xmlns="http://www.w3.org/2000/svg">
<path d="M10.896 140.802V35.4012H29.9896V124.796H76.4113V140.802H10.896ZM114.907 142.398C109.898 142.398 105.386 141.506 101.372 139.721C97.392 137.903 94.2355 135.227 91.9024 131.693C89.6036 128.159 88.4542 123.801 88.4542 118.621C88.4542 114.16 89.2777 110.472 90.9246 107.556C92.5715 104.639 94.8188 102.306 97.6665 100.556C100.514 98.8065 103.722 97.4855 107.291 96.5934C110.893 95.6671 114.616 94.998 118.459 94.5863C123.09 94.106 126.847 93.6771 129.729 93.2997C132.611 92.8879 134.704 92.2704 136.008 91.4469C137.346 90.5892 138.015 89.2682 138.015 87.4841V87.1753C138.015 83.2982 136.866 80.2961 134.567 78.1689C132.268 76.0416 128.957 74.978 124.634 74.978C120.071 74.978 116.451 75.973 113.775 77.963C111.133 79.953 109.349 82.3032 108.423 85.0138L91.0275 82.5434C92.3999 77.74 94.6644 73.7257 97.8209 70.5005C100.977 67.2411 104.837 64.805 109.401 63.1925C113.964 61.5456 119.007 60.7221 124.531 60.7221C128.34 60.7221 132.131 61.1682 135.905 62.0602C139.679 62.9523 143.128 64.4276 146.25 66.4862C149.372 68.5105 151.877 71.2725 153.764 74.7722C155.685 78.2718 156.646 82.6463 156.646 87.8958V140.802H138.736V129.943H138.118C136.986 132.139 135.391 134.197 133.332 136.119C131.308 138.006 128.752 139.533 125.664 140.699C122.61 141.831 119.025 142.398 114.907 142.398ZM119.745 128.708C123.485 128.708 126.727 127.97 129.472 126.495C132.217 124.985 134.327 122.995 135.802 120.525C137.312 118.054 138.067 115.361 138.067 112.445V103.13C137.484 103.61 136.489 104.056 135.082 104.468C133.709 104.879 132.165 105.24 130.45 105.548C128.734 105.857 127.036 106.132 125.355 106.372C123.674 106.612 122.215 106.818 120.98 106.989C118.201 107.367 115.714 107.984 113.518 108.842C111.322 109.7 109.589 110.901 108.32 112.445C107.05 113.954 106.416 115.91 106.416 118.312C106.416 121.743 107.668 124.333 110.173 126.083C112.677 127.833 115.868 128.708 119.745 128.708ZM175.379 140.802V61.7514H193.186V75.1839H194.113C195.759 70.6549 198.487 67.121 202.296 64.582C206.104 62.0088 210.65 60.7221 215.934 60.7221C221.286 60.7221 225.798 62.0259 229.469 64.6335C233.175 67.2067 235.782 70.7235 237.292 75.1839H238.115C239.865 70.7922 242.816 67.2925 246.967 64.685C251.153 62.0431 256.111 60.7221 261.841 60.7221C269.115 60.7221 275.05 63.0209 279.648 67.6185C284.245 72.216 286.544 78.9237 286.544 87.7414V140.802H267.862V90.6235C267.862 85.7171 266.559 82.1317 263.951 79.8672C261.343 77.5684 258.153 76.419 254.378 76.419C249.884 76.419 246.367 77.8258 243.828 80.6392C241.323 83.4183 240.071 87.0381 240.071 91.4984V140.802H221.801V89.8515C221.801 85.7686 220.566 82.5091 218.095 80.0731C215.659 77.6371 212.468 76.419 208.523 76.419C205.847 76.419 203.411 77.1052 201.215 78.4777C199.019 79.8158 197.269 81.72 195.965 84.1903C194.661 86.6263 194.01 89.4741 194.01 92.7335V140.802H175.379ZM306.268 140.802V35.4012H324.899V74.8236H325.671C326.631 72.9022 327.987 70.8608 329.736 68.6992C331.486 66.5034 333.854 64.6335 336.839 63.0895C339.824 61.5113 343.632 60.7221 348.264 60.7221C354.371 60.7221 359.878 62.2832 364.784 65.4055C369.725 68.4934 373.636 73.0738 376.518 79.1467C379.435 85.1853 380.893 92.5963 380.893 101.38C380.893 110.06 379.469 117.437 376.621 123.51C373.774 129.583 369.897 134.215 364.99 137.405C360.084 140.596 354.526 142.192 348.315 142.192C343.787 142.192 340.03 141.437 337.045 139.927C334.06 138.418 331.658 136.599 329.839 134.472C328.055 132.31 326.666 130.269 325.671 128.348H324.59V140.802H306.268ZM324.538 101.277C324.538 106.389 325.259 110.866 326.7 114.709C328.175 118.552 330.285 121.554 333.03 123.716C335.809 125.843 339.172 126.907 343.117 126.907C347.235 126.907 350.683 125.809 353.462 123.613C356.241 121.383 358.334 118.346 359.741 114.503C361.182 110.626 361.902 106.217 361.902 101.277C361.902 96.3704 361.199 92.013 359.792 88.2046C358.386 84.3962 356.293 81.4112 353.513 79.2496C350.734 77.0881 347.269 76.0073 343.117 76.0073C339.137 76.0073 335.758 77.0538 332.979 79.1467C330.2 81.2396 328.09 84.1731 326.649 87.9473C325.242 91.7214 324.538 96.1646 324.538 101.277ZM426.067 142.192C419.857 142.192 414.298 140.596 409.392 137.405C404.486 134.215 400.609 129.583 397.761 123.51C394.913 117.437 393.489 110.06 393.489 101.38C393.489 92.5963 394.93 85.1853 397.812 79.1467C400.729 73.0738 404.657 68.4934 409.598 65.4055C414.538 62.2832 420.045 60.7221 426.118 60.7221C430.75 60.7221 434.558 61.5113 437.543 63.0895C440.528 64.6335 442.896 66.5034 444.646 68.6992C446.396 70.8608 447.751 72.9022 448.711 74.8236H449.483V35.4012H468.165V140.802H449.844V128.348H448.711C447.751 130.269 446.361 132.31 444.543 134.472C442.724 136.599 440.323 138.418 437.338 139.927C434.353 141.437 430.596 142.192 426.067 142.192ZM431.265 126.907C435.21 126.907 438.573 125.843 441.352 123.716C444.131 121.554 446.241 118.552 447.682 114.709C449.123 110.866 449.844 106.389 449.844 101.277C449.844 96.1646 449.123 91.7214 447.682 87.9473C446.275 84.1731 444.183 81.2396 441.403 79.1467C438.659 77.0538 435.279 76.0073 431.265 76.0073C427.113 76.0073 423.648 77.0881 420.869 79.2496C418.09 81.4112 415.997 84.3962 414.59 88.2046C413.183 92.013 412.48 96.3704 412.48 101.277C412.48 106.217 413.183 110.626 414.59 114.503C416.031 118.346 418.141 121.383 420.92 123.613C423.734 125.809 427.182 126.907 431.265 126.907ZM510.766 142.398C505.756 142.398 501.245 141.506 497.23 139.721C493.25 137.903 490.094 135.227 487.761 131.693C485.462 128.159 484.313 123.801 484.313 118.621C484.313 114.16 485.136 110.472 486.783 107.556C488.43 104.639 490.677 102.306 493.525 100.556C496.373 98.8065 499.581 97.4855 503.149 96.5934C506.751 95.6671 510.474 94.998 514.317 94.5863C518.949 94.106 522.706 93.6771 525.588 93.2997C528.47 92.8879 530.563 92.2704 531.867 91.4469C533.205 90.5892 533.874 89.2682 533.874 87.4841V87.1753C533.874 83.2982 532.724 80.2961 530.425 78.1689C528.127 76.0416 524.816 74.978 520.493 74.978C515.929 74.978 512.31 75.973 509.634 77.963C506.992 79.953 505.207 82.3032 504.281 85.0138L486.886 82.5434C488.258 77.74 490.523 73.7257 493.679 70.5005C496.836 67.2411 500.696 64.805 505.259 63.1925C509.822 61.5456 514.866 60.7221 520.39 60.7221C524.198 60.7221 527.989 61.1682 531.764 62.0602C535.538 62.9523 538.986 64.4276 542.108 66.4862C545.23 68.5105 547.735 71.2725 549.622 74.7722C551.543 78.2718 552.504 82.6463 552.504 87.8958V140.802H534.594V129.943H533.977C532.844 132.139 531.249 134.197 529.19 136.119C527.166 138.006 524.61 139.533 521.522 140.699C518.468 141.831 514.883 142.398 510.766 142.398ZM515.603 128.708C519.343 128.708 522.586 127.97 525.33 126.495C528.075 124.985 530.185 122.995 531.661 120.525C533.17 118.054 533.925 115.361 533.925 112.445V103.13C533.342 103.61 532.347 104.056 530.94 104.468C529.568 104.879 528.024 105.24 526.308 105.548C524.593 105.857 522.894 106.132 521.213 106.372C519.532 106.612 518.074 106.818 516.839 106.989C514.06 107.367 511.572 107.984 509.376 108.842C507.18 109.7 505.448 110.901 504.178 112.445C502.909 113.954 502.274 115.91 502.274 118.312C502.274 121.743 503.526 124.333 506.031 126.083C508.536 127.833 511.726 128.708 515.603 128.708Z" fill="white"/>
<path d="M328.501 172.078C374.273 207.973 399.649 206.443 444.732 172.078" stroke="#7254ED" stroke-width="15.8101"/>
</svg>
