<svg width="726" height="327" viewBox="0 0 726 327" fill="none" xmlns="http://www.w3.org/2000/svg">
<rect width="726" height="327" fill="white"/>
<path d="M92.396 204.687V99.2858H111.49V188.681H157.911V204.687H92.396ZM196.407 206.282C191.398 206.282 186.886 205.39 182.872 203.606C178.892 201.788 175.735 199.111 173.402 195.577C171.104 192.043 169.954 187.686 169.954 182.505C169.954 178.045 170.778 174.357 172.425 171.44C174.071 168.524 176.319 166.191 179.167 164.441C182.014 162.691 185.222 161.37 188.791 160.478C192.393 159.552 196.116 158.883 199.959 158.471C204.59 157.991 208.347 157.562 211.229 157.184C214.111 156.773 216.204 156.155 217.508 155.331C218.846 154.474 219.515 153.153 219.515 151.369V151.06C219.515 147.183 218.366 144.181 216.067 142.053C213.768 139.926 210.457 138.863 206.134 138.863C201.571 138.863 197.951 139.858 195.275 141.848C192.633 143.838 190.849 146.188 189.923 148.898L172.527 146.428C173.9 141.625 176.164 137.61 179.321 134.385C182.477 131.126 186.337 128.69 190.901 127.077C195.464 125.43 200.507 124.607 206.031 124.607C209.84 124.607 213.631 125.053 217.405 125.945C221.179 126.837 224.628 128.312 227.75 130.371C230.872 132.395 233.377 135.157 235.264 138.657C237.185 142.156 238.146 146.531 238.146 151.78V204.687H220.236V193.828H219.618C218.486 196.023 216.891 198.082 214.832 200.003C212.808 201.89 210.252 203.417 207.164 204.584C204.11 205.716 200.525 206.282 196.407 206.282ZM201.245 192.592C204.985 192.592 208.227 191.855 210.972 190.379C213.717 188.87 215.827 186.88 217.302 184.409C218.812 181.939 219.567 179.246 219.567 176.329V167.014C218.984 167.494 217.989 167.94 216.582 168.352C215.209 168.764 213.665 169.124 211.95 169.433C210.234 169.742 208.536 170.016 206.855 170.256C205.174 170.497 203.715 170.702 202.48 170.874C199.701 171.251 197.214 171.869 195.018 172.727C192.822 173.585 191.089 174.785 189.82 176.329C188.55 177.839 187.916 179.795 187.916 182.196C187.916 185.627 189.168 188.218 191.673 189.968C194.177 191.717 197.368 192.592 201.245 192.592ZM256.879 204.687V125.636H274.686V139.068H275.613C277.259 134.54 279.987 131.006 283.796 128.467C287.604 125.893 292.15 124.607 297.434 124.607C302.786 124.607 307.298 125.91 310.969 128.518C314.675 131.091 317.282 134.608 318.792 139.068H319.615C321.365 134.677 324.316 131.177 328.467 128.57C332.653 125.928 337.611 124.607 343.341 124.607C350.615 124.607 356.55 126.905 361.148 131.503C365.745 136.101 368.044 142.808 368.044 151.626V204.687H349.362V154.508C349.362 149.602 348.059 146.016 345.451 143.752C342.843 141.453 339.653 140.304 335.878 140.304C331.384 140.304 327.867 141.71 325.328 144.524C322.823 147.303 321.571 150.923 321.571 155.383V204.687H303.301V153.736C303.301 149.653 302.066 146.394 299.595 143.958C297.159 141.522 293.968 140.304 290.023 140.304C287.347 140.304 284.911 140.99 282.715 142.362C280.519 143.7 278.769 145.605 277.465 148.075C276.161 150.511 275.51 153.359 275.51 156.618V204.687H256.879ZM387.768 204.687V99.2858H406.399V138.708H407.171C408.131 136.787 409.487 134.745 411.236 132.584C412.986 130.388 415.354 128.518 418.339 126.974C421.324 125.396 425.132 124.607 429.764 124.607C435.871 124.607 441.378 126.168 446.284 129.29C451.225 132.378 455.136 136.958 458.018 143.031C460.935 149.07 462.393 156.481 462.393 165.264C462.393 173.945 460.969 181.321 458.121 187.394C455.274 193.467 451.397 198.099 446.49 201.29C441.584 204.481 436.026 206.076 429.815 206.076C425.287 206.076 421.53 205.321 418.545 203.812C415.56 202.302 413.158 200.484 411.339 198.357C409.555 196.195 408.166 194.154 407.171 192.232H406.09V204.687H387.768ZM406.038 165.161C406.038 170.274 406.759 174.751 408.2 178.594C409.675 182.437 411.785 185.439 414.53 187.6C417.309 189.727 420.672 190.791 424.617 190.791C428.735 190.791 432.183 189.693 434.962 187.497C437.741 185.267 439.834 182.231 441.241 178.388C442.682 174.511 443.402 170.102 443.402 165.161C443.402 160.255 442.699 155.898 441.292 152.089C439.886 148.281 437.793 145.296 435.013 143.134C432.234 140.973 428.769 139.892 424.617 139.892C420.637 139.892 417.258 140.938 414.479 143.031C411.7 145.124 409.59 148.058 408.149 151.832C406.742 155.606 406.038 160.049 406.038 165.161ZM507.567 206.076C501.357 206.076 495.798 204.481 490.892 201.29C485.986 198.099 482.109 193.467 479.261 187.394C476.413 181.321 474.989 173.945 474.989 165.264C474.989 156.481 476.43 149.07 479.312 143.031C482.229 136.958 486.157 132.378 491.098 129.29C496.038 126.168 501.545 124.607 507.618 124.607C512.25 124.607 516.058 125.396 519.043 126.974C522.028 128.518 524.396 130.388 526.146 132.584C527.896 134.745 529.251 136.787 530.211 138.708H530.983V99.2858H549.665V204.687H531.344V192.232H530.211C529.251 194.154 527.861 196.195 526.043 198.357C524.224 200.484 521.823 202.302 518.838 203.812C515.853 205.321 512.096 206.076 507.567 206.076ZM512.765 190.791C516.71 190.791 520.073 189.727 522.852 187.6C525.631 185.439 527.741 182.437 529.182 178.594C530.623 174.751 531.344 170.274 531.344 165.161C531.344 160.049 530.623 155.606 529.182 151.832C527.775 148.058 525.683 145.124 522.903 143.031C520.159 140.938 516.779 139.892 512.765 139.892C508.613 139.892 505.148 140.973 502.369 143.134C499.59 145.296 497.497 148.281 496.09 152.089C494.683 155.898 493.98 160.255 493.98 165.161C493.98 170.102 494.683 174.511 496.09 178.388C497.531 182.231 499.641 185.267 502.42 187.497C505.234 189.693 508.682 190.791 512.765 190.791ZM592.266 206.282C587.256 206.282 582.745 205.39 578.73 203.606C574.75 201.788 571.594 199.111 569.261 195.577C566.962 192.043 565.813 187.686 565.813 182.505C565.813 178.045 566.636 174.357 568.283 171.44C569.93 168.524 572.177 166.191 575.025 164.441C577.873 162.691 581.081 161.37 584.649 160.478C588.251 159.552 591.974 158.883 595.817 158.471C600.449 157.991 604.206 157.562 607.088 157.184C609.97 156.773 612.063 156.155 613.367 155.331C614.705 154.474 615.374 153.153 615.374 151.369V151.06C615.374 147.183 614.224 144.181 611.925 142.053C609.627 139.926 606.316 138.863 601.993 138.863C597.429 138.863 593.81 139.858 591.134 141.848C588.492 143.838 586.707 146.188 585.781 148.898L568.386 146.428C569.758 141.625 572.023 137.61 575.179 134.385C578.336 131.126 582.196 128.69 586.759 127.077C591.322 125.43 596.366 124.607 601.89 124.607C605.698 124.607 609.489 125.053 613.264 125.945C617.038 126.837 620.486 128.312 623.608 130.371C626.73 132.395 629.235 135.157 631.122 138.657C633.043 142.156 634.004 146.531 634.004 151.78V204.687H616.094V193.828H615.477C614.344 196.023 612.749 198.082 610.69 200.003C608.666 201.89 606.11 203.417 603.022 204.584C599.968 205.716 596.383 206.282 592.266 206.282ZM597.103 192.592C600.843 192.592 604.086 191.855 606.83 190.379C609.575 188.87 611.685 186.88 613.161 184.409C614.67 181.939 615.425 179.246 615.425 176.329V167.014C614.842 167.494 613.847 167.94 612.44 168.352C611.068 168.764 609.524 169.124 607.808 169.433C606.093 169.742 604.394 170.016 602.713 170.256C601.032 170.497 599.574 170.702 598.339 170.874C595.56 171.251 593.072 171.869 590.876 172.727C588.68 173.585 586.948 174.785 585.678 176.329C584.409 177.839 583.774 179.795 583.774 182.196C583.774 185.627 585.026 188.218 587.531 189.968C590.036 191.717 593.226 192.592 597.103 192.592Z" fill="black"/>
<path d="M410.001 235.963C455.773 271.858 481.15 270.327 526.232 235.963" stroke="#7254ED" stroke-width="15.8101"/>
</svg>
